<?xml version="1.0" standalone="no"?>
<!DOCTYPE svg PUBLIC "-//W3C//DTD SVG 20010904//EN"
 "http://www.w3.org/TR/2001/REC-SVG-20010904/DTD/svg10.dtd">
<svg version="1.0" xmlns="http://www.w3.org/2000/svg"
 width="1303.000000pt" height="1303.000000pt" viewBox="0 0 1303.000000 1303.000000"
 preserveAspectRatio="xMidYMid meet">
<metadata>
Created by potrace 1.11, written by Peter Selinger 2001-2013
</metadata>
<g transform="translate(0.000000,1303.000000) scale(0.100000,-0.100000)"
fill="#000000" stroke="none">
<path d="M6528 13004 c-59 -7 -111 -15 -116 -18 -5 -3 -22 -7 -38 -10 -106
-19 -285 -98 -411 -182 -99 -66 -260 -222 -325 -314 -162 -231 -239 -469 -241
-740 -1 -149 4 -194 35 -320 42 -178 133 -362 247 -500 102 -125 257 -255 391
-327 108 -58 278 -118 370 -130 25 -3 50 -8 57 -12 6 -3 -284 -6 -645 -7 -649
0 -658 -1 -737 -23 -83 -23 -162 -63 -230 -115 -111 -86 -194 -213 -230 -351
-8 -33 -42 -125 -76 -205 -55 -131 -136 -329 -224 -545 -67 -166 -197 -481
-210 -510 -7 -16 -54 -131 -105 -255 -51 -124 -98 -238 -105 -255 -8 -16 -73
-174 -145 -350 -72 -176 -135 -329 -140 -340 -5 -11 -34 -81 -64 -155 -31 -74
-112 -272 -182 -440 -132 -320 -194 -504 -194 -581 0 -137 53 -282 144 -394
93 -113 193 -174 353 -213 15 -4 80 -7 143 -6 174 0 267 38 372 152 49 54 196
270 269 395 19 32 39 66 44 75 6 9 37 62 70 117 33 55 65 109 71 120 27 49
359 614 379 645 12 19 85 142 161 272 76 130 140 235 142 234 3 -3 -53 -164
-106 -306 -9 -25 -17 -47 -18 -50 0 -3 -4 -14 -8 -25 -16 -40 -45 -122 -81
-225 -20 -58 -40 -114 -45 -125 -8 -18 -97 -266 -104 -290 -2 -5 -6 -17 -9
-25 -3 -8 -31 -87 -62 -175 -31 -88 -99 -277 -150 -420 -52 -143 -150 -420
-220 -615 -69 -195 -130 -364 -134 -375 -33 -73 -290 -819 -296 -855 -24 -152
3 -240 108 -345 94 -93 209 -163 432 -260 90 -39 345 -108 445 -121 19 -2 46
-6 60 -9 14 -3 62 -6 106 -7 l81 -1 0 -1421 c0 -782 3 -1447 7 -1479 38 -320
323 -569 651 -569 117 0 174 14 305 76 47 22 88 54 150 116 92 91 132 156 171
275 l23 70 3 1440 c1 792 2 1452 2 1467 1 26 1 26 76 25 46 0 75 -5 76 -11 1
-6 2 -663 3 -1461 2 -1366 3 -1453 20 -1510 40 -132 83 -204 181 -301 151
-148 342 -210 550 -179 105 16 179 46 270 106 151 101 259 273 281 448 11 86
6 3753 -9 6704 -2 240 0 437 3 437 3 0 17 -46 33 -103 26 -97 115 -425 159
-587 11 -41 31 -115 43 -165 41 -156 134 -499 144 -530 6 -16 19 -68 31 -115
36 -144 62 -205 128 -290 98 -126 246 -220 387 -245 76 -14 207 -13 274 2 183
41 355 174 439 343 72 144 92 313 52 441 -23 71 -19 59 -94 329 -64 228 -79
281 -82 295 -1 6 -16 57 -32 115 -17 58 -42 146 -56 195 -13 50 -43 158 -66
240 -23 83 -53 188 -66 235 -13 47 -42 150 -64 230 -23 80 -45 159 -50 175
-10 40 -123 444 -205 735 -37 129 -73 258 -80 285 -8 28 -26 93 -40 145 -15
52 -31 109 -35 125 -127 465 -146 520 -218 614 -82 109 -232 208 -358 237 -74
16 -183 19 -811 19 -370 0 -669 3 -665 6 4 3 43 14 87 23 504 113 902 545 981
1066 15 96 10 337 -9 427 -63 301 -207 547 -432 739 -274 234 -625 340 -987
298z m342 -2554 c0 -5 -5 -10 -11 -10 -5 0 -7 5 -4 10 3 6 8 10 11 10 2 0 4
-4 4 -10z"/>
</g>
</svg>
